<?xml version="1.0" encoding="iso-8859-1"?>
<!-- Generator: Adobe Illustrator 19.0.0, SVG Export Plug-In . SVG Version: 6.00 Build 0)  -->
<svg version="1.1" id="Capa_1" xmlns="http://www.w3.org/2000/svg" xmlns:xlink="http://www.w3.org/1999/xlink" x="0px" y="0px"
	 viewBox="0 0 512 512" style="enable-background:new 0 0 512 512;" xml:space="preserve">
<linearGradient id="SVGID_1_" gradientUnits="userSpaceOnUse" x1="74.9807" y1="439.0193" x2="437.0193" y2="76.9807" gradientTransform="matrix(1 0 0 -1 0 514)">
	<stop  offset="0" style="stop-color:#AD1E9E"/>
	<stop  offset="1" style="stop-color:#5C0254"/>
</linearGradient>
<circle style="fill:url(#SVGID_1_);" cx="256" cy="256" r="256"/>
<linearGradient id="SVGID_2_" gradientUnits="userSpaceOnUse" x1="115.013" y1="234.773" x2="396.989" y2="234.773" gradientTransform="matrix(1 0 0 -1 0 514)">
	<stop  offset="0.001" style="stop-color:#FFFFFF"/>
	<stop  offset="1" style="stop-color:#FFF4C8"/>
</linearGradient>
<path style="fill:url(#SVGID_2_);" d="M305.593,181.748V109.03h-99.185v72.718c-53.396,19.679-91.395,70.202-91.395,129.436
	c0,76.348,63.123,138.24,140.988,138.24s140.988-61.892,140.988-138.24C396.988,251.95,358.989,201.426,305.593,181.748z"/>
<linearGradient id="SVGID_3_" gradientUnits="userSpaceOnUse" x1="179.38" y1="422.75" x2="332.61" y2="422.75" gradientTransform="matrix(1 0 0 -1 0 514)">
	<stop  offset="0.001" style="stop-color:#FFFFFF"/>
	<stop  offset="1" style="stop-color:#FFB835"/>
</linearGradient>
<rect x="179.38" y="66.58" style="fill:url(#SVGID_3_);" width="153.23" height="49.34"/>
<linearGradient id="SVGID_4_" gradientUnits="userSpaceOnUse" x1="149.858" y1="179.6775" x2="362.142" y2="179.6775" gradientTransform="matrix(1 0 0 -1 0 514)">
	<stop  offset="0" style="stop-color:#FFB835"/>
	<stop  offset="0.901" style="stop-color:#FF7700"/>
</linearGradient>
<path style="fill:url(#SVGID_4_);" d="M256,415.257c58.621,0,106.142-46.595,106.142-104.074c0-15.789-3.588-30.755-10.006-44.161
	c-4.408-9.208-15.103-13.595-24.629-9.924c-3.984,1.535-7.772,3.52-11.313,5.898c-8.837,5.936-20.384,5.716-29.253-0.173
	c-9.013-5.985-19.606-9.435-30.941-9.435s-21.929,3.45-30.941,9.435c-8.868,5.889-20.416,6.11-29.253,0.173
	c-3.541-2.379-7.329-4.363-11.313-5.898c-9.526-3.671-20.22,0.716-24.629,9.924c-6.418,13.406-10.006,28.372-10.006,44.161
	C149.858,368.662,197.379,415.257,256,415.257z"/>
<circle style="fill:#FFB844;" cx="225.4" cy="225.25" r="19.18"/>
<circle style="fill:#FF7600;" cx="277.54" cy="199.96" r="14.852"/>
<g>
</g>
<g>
</g>
<g>
</g>
<g>
</g>
<g>
</g>
<g>
</g>
<g>
</g>
<g>
</g>
<g>
</g>
<g>
</g>
<g>
</g>
<g>
</g>
<g>
</g>
<g>
</g>
<g>
</g>
</svg>
