<?xml version="1.0" encoding="iso-8859-1"?>
<!-- Generator: Adobe Illustrator 19.0.0, SVG Export Plug-In . SVG Version: 6.00 Build 0)  -->
<svg version="1.1" id="Capa_1" xmlns="http://www.w3.org/2000/svg" xmlns:xlink="http://www.w3.org/1999/xlink" x="0px" y="0px"
	 viewBox="0 0 512 512" style="enable-background:new 0 0 512 512;" xml:space="preserve">
<linearGradient id="SVGID_1_" gradientUnits="userSpaceOnUse" x1="74.9807" y1="439.0193" x2="437.0193" y2="76.9807" gradientTransform="matrix(1 0 0 -1 0 514)">
	<stop  offset="0" style="stop-color:#AD1E9E"/>
	<stop  offset="1" style="stop-color:#5C0254"/>
</linearGradient>
<circle style="fill:url(#SVGID_1_);" cx="256" cy="256" r="256"/>
<linearGradient id="SVGID_2_" gradientUnits="userSpaceOnUse" x1="99" y1="258.1675" x2="375" y2="258.1675" gradientTransform="matrix(1 0 0 -1 0 514)">
	<stop  offset="0" style="stop-color:#FFFFFF"/>
	<stop  offset="1" style="stop-color:#D5ED9A"/>
</linearGradient>
<path style="fill:url(#SVGID_2_);" d="M408.325,255.833c1.862-2.126,3.667-4.255,5.405-6.388
	c28.224-34.632,36.882-66.673,24.379-90.221c-12.503-23.547-43.897-34.323-88.394-30.34c-6.071,0.543-12.308,1.357-18.676,2.419
	c-2.049-6.122-4.255-12.012-6.622-17.629c-17.352-41.169-41.59-63.842-68.251-63.842s-50.899,22.673-68.251,63.842
	c-2.367,5.617-4.573,11.507-6.622,17.629c-6.368-1.061-12.605-1.876-18.676-2.419c-44.498-3.981-75.891,6.793-88.394,30.341
	c-12.503,23.547-3.845,55.588,24.379,90.22c1.738,2.133,3.543,4.262,5.405,6.388c-1.862,2.126-3.667,4.255-5.405,6.388
	c-28.224,34.632-36.882,66.673-24.379,90.221c10.801,20.342,35.692,31.15,70.959,31.15c5.557,0,11.377-0.269,17.434-0.811
	c6.071-0.543,12.308-1.357,18.676-2.419c2.049,6.122,4.255,12.012,6.622,17.629c17.352,41.169,41.59,63.842,68.251,63.842
	s50.899-22.673,68.251-63.842c2.367-5.617,4.573-11.507,6.622-17.629c6.368,1.061,12.605,1.875,18.676,2.419
	c6.059,0.542,11.876,0.811,17.434,0.811c35.263,0,60.159-10.811,70.959-31.151c12.503-23.547,3.845-55.588-24.379-90.22
	C411.992,260.089,410.187,257.959,408.325,255.833z M351.676,150.798c5.475-0.49,10.692-0.731,15.633-0.731
	c26.29,0,44.66,6.841,51.369,19.476c7.97,15.011-0.05,39.068-22.002,66.005c-1.165,1.43-2.372,2.859-3.599,4.286
	c-13.598-13.203-29.392-26.062-46.848-38.15c-2.035-17.228-5.041-33.723-8.955-49.109
	C342.175,151.814,346.982,151.219,351.676,150.798z M299.868,338.137c7.49-3.977,14.807-8.116,21.924-12.391
	c-1.678,10.081-3.723,19.797-6.12,29.057c-10.049-2.404-20.376-5.418-30.869-9.01C289.834,343.345,294.859,340.796,299.868,338.137z
	 M289.55,318.706c-11.107,5.898-22.278,11.253-33.384,16.026c-11.106-4.773-22.277-10.128-33.384-16.026
	c-12.542-6.659-24.557-13.773-35.892-21.221c-1.262-13.504-1.91-27.452-1.91-41.651c0-14.2,0.648-28.147,1.91-41.651
	c11.335-7.448,23.35-14.561,35.892-21.221c11.107-5.898,22.278-11.253,33.384-16.026c11.106,4.773,22.277,10.128,33.384,16.026
	c12.542,6.659,24.557,13.773,35.892,21.221c1.262,13.504,1.91,27.452,1.91,41.651c0,14.2-0.648,28.147-1.91,41.651
	C314.107,304.933,302.092,312.046,289.55,318.706z M227.529,345.793c-10.493,3.592-20.819,6.605-30.869,9.01
	c-2.397-9.26-4.443-18.977-6.12-29.057c7.117,4.275,14.434,8.414,21.924,12.391C217.474,340.796,222.499,343.345,227.529,345.793z
	 M163.643,281.008c-10.678-8.169-20.503-16.604-29.302-25.175c8.799-8.57,18.624-17.006,29.302-25.175
	c-0.438,8.291-0.662,16.694-0.662,25.175S163.204,272.717,163.643,281.008z M190.541,185.921c1.678-10.081,3.723-19.797,6.12-29.057
	c10.049,2.404,20.376,5.418,30.869,9.01c-5.031,2.448-10.056,4.997-15.064,7.656C204.975,177.507,197.658,181.646,190.541,185.921z
	 M284.803,165.874c10.493-3.592,20.819-6.605,30.869-9.01c2.397,9.26,4.443,18.977,6.12,29.057
	c-7.117-4.275-14.434-8.414-21.924-12.391C294.859,170.871,289.834,168.322,284.803,165.874z M348.69,230.659
	c10.678,8.169,20.503,16.604,29.302,25.175c-8.799,8.57-18.624,17.006-29.302,25.175c0.438-8.291,0.662-16.694,0.662-25.175
	S349.129,238.95,348.69,230.659z M208.189,122.22c13.496-32.021,30.983-50.387,47.978-50.387s34.482,18.365,47.978,50.387
	c1.831,4.343,3.559,8.868,5.185,13.552c-17.201,4.191-35.088,10.028-53.163,17.34c-18.075-7.312-35.963-13.148-53.163-17.34
	C204.63,131.088,206.358,126.563,208.189,122.22z M93.655,169.542c6.71-12.636,25.076-19.476,51.369-19.476
	c4.939,0,10.16,0.241,15.633,0.731c4.695,0.42,9.502,1.015,14.402,1.776c-3.914,15.387-6.92,31.881-8.955,49.109
	c-17.455,12.088-33.25,24.948-46.848,38.15c-1.227-1.428-2.434-2.856-3.599-4.286C93.705,208.611,85.685,184.553,93.655,169.542z
	 M160.657,360.869c-34.606,3.099-59.032-3.734-67.002-18.744c-7.97-15.011,0.05-39.068,22.002-66.005
	c1.165-1.43,2.372-2.859,3.599-4.286c13.598,13.203,29.393,26.062,46.848,38.15c2.035,17.228,5.041,33.723,8.955,49.109
	C170.158,359.853,165.352,360.448,160.657,360.869z M304.145,389.447c-13.496,32.021-30.983,50.387-47.978,50.387
	s-34.482-18.365-47.978-50.387c-1.831-4.343-3.559-8.868-5.186-13.552c17.201-4.191,35.088-10.028,53.163-17.34
	c18.075,7.312,35.963,13.148,53.163,17.34C307.703,380.579,305.975,385.103,304.145,389.447z M418.678,342.125
	c-7.97,15.01-32.392,21.844-67.002,18.744c-4.695-0.42-9.502-1.015-14.402-1.776c3.914-15.387,6.92-31.881,8.955-49.109
	c17.455-12.088,33.25-24.948,46.848-38.15c1.227,1.428,2.434,2.856,3.599,4.286C418.628,303.056,426.648,327.114,418.678,342.125z"
	/>
<linearGradient id="SVGID_3_" gradientUnits="userSpaceOnUse" x1="99" y1="141.28" x2="375" y2="141.28" gradientTransform="matrix(1 0 0 -1 0 514)">
	<stop  offset="0" style="stop-color:#FFB835"/>
	<stop  offset="0.901" style="stop-color:#FF7700"/>
</linearGradient>
<circle style="fill:url(#SVGID_3_);" cx="139.33" cy="372.72" r="29.5"/>
<linearGradient id="SVGID_4_" gradientUnits="userSpaceOnUse" x1="99" y1="415.33" x2="375" y2="415.33" gradientTransform="matrix(1 0 0 -1 0 514)">
	<stop  offset="0" style="stop-color:#FF0014"/>
	<stop  offset="1" style="stop-color:#B80002"/>
</linearGradient>
<circle style="fill:url(#SVGID_4_);" cx="208.17" cy="98.67" r="29.5"/>
<linearGradient id="SVGID_5_" gradientUnits="userSpaceOnUse" x1="99" y1="207.94" x2="375" y2="207.94" gradientTransform="matrix(1 0 0 -1 0 514)">
	<stop  offset="0.001" style="stop-color:#FF7600"/>
	<stop  offset="1" style="stop-color:#FF001A"/>
</linearGradient>
<circle style="fill:url(#SVGID_5_);" cx="335.34" cy="306.06" r="29.5"/>
<g>
</g>
<g>
</g>
<g>
</g>
<g>
</g>
<g>
</g>
<g>
</g>
<g>
</g>
<g>
</g>
<g>
</g>
<g>
</g>
<g>
</g>
<g>
</g>
<g>
</g>
<g>
</g>
<g>
</g>
</svg>
