<?xml version="1.0" encoding="iso-8859-1"?>
<!-- Generator: Adobe Illustrator 19.0.0, SVG Export Plug-In . SVG Version: 6.00 Build 0)  -->
<svg version="1.1" id="Capa_1" xmlns="http://www.w3.org/2000/svg" xmlns:xlink="http://www.w3.org/1999/xlink" x="0px" y="0px"
	 viewBox="0 0 512 512" style="enable-background:new 0 0 512 512;" xml:space="preserve">
<linearGradient id="SVGID_1_" gradientUnits="userSpaceOnUse" x1="74.9807" y1="439.0193" x2="437.0193" y2="76.9807" gradientTransform="matrix(1 0 0 -1 0 514)">
	<stop  offset="0" style="stop-color:#AD1E9E"/>
	<stop  offset="1" style="stop-color:#5C0254"/>
</linearGradient>
<circle style="fill:url(#SVGID_1_);" cx="256" cy="256" r="256"/>
<linearGradient id="SVGID_2_" gradientUnits="userSpaceOnUse" x1="172.17" y1="258.001" x2="354.74" y2="258.001" gradientTransform="matrix(1 0 0 -1 0 514)">
	<stop  offset="0.001" style="stop-color:#FFFFFF"/>
	<stop  offset="1" style="stop-color:#FFF4C8"/>
</linearGradient>
<path style="fill:url(#SVGID_2_);" d="M350.493,179.034V89.215H161.507v89.819c0,30.137,20.673,55.43,48.61,62.505
	c6.627,1.678,11.279,7.624,11.279,14.46l0,0c0,6.836-4.652,12.782-11.279,14.46c-27.937,7.075-48.61,32.369-48.61,62.505v89.819
	h188.987v-89.819c0-30.136-20.674-55.43-48.61-62.505c-6.627-1.678-11.279-7.624-11.279-14.46l0,0
	c0-6.837,4.652-12.782,11.279-14.46C329.82,234.464,350.493,209.171,350.493,179.034z"/>
<linearGradient id="SVGID_3_" gradientUnits="userSpaceOnUse" x1="172.17" y1="161.9995" x2="354.74" y2="161.9995" gradientTransform="matrix(1 0 0 -1 0 514)">
	<stop  offset="0" style="stop-color:#FF0014"/>
	<stop  offset="1" style="stop-color:#B80002"/>
</linearGradient>
<path style="fill:url(#SVGID_3_);" d="M324.958,394.167H187.042v-46.5c0-20.895,16.939-37.833,37.833-37.833h62.25
	c20.895,0,37.833,16.939,37.833,37.833V394.167z"/>
<g>
	
		<linearGradient id="SVGID_4_" gradientUnits="userSpaceOnUse" x1="172.17" y1="413.4965" x2="354.74" y2="413.4965" gradientTransform="matrix(1 0 0 -1 0 514)">
		<stop  offset="0" style="stop-color:#FFB835"/>
		<stop  offset="0.901" style="stop-color:#FF7700"/>
	</linearGradient>
	<rect x="134" y="77.17" style="fill:url(#SVGID_4_);" width="244" height="46.667"/>
	
		<linearGradient id="SVGID_5_" gradientUnits="userSpaceOnUse" x1="172.17" y1="102.4965" x2="354.74" y2="102.4965" gradientTransform="matrix(1 0 0 -1 0 514)">
		<stop  offset="0" style="stop-color:#FFB835"/>
		<stop  offset="0.901" style="stop-color:#FF7700"/>
	</linearGradient>
	<rect x="134" y="388.17" style="fill:url(#SVGID_5_);" width="244" height="46.667"/>
</g>
<linearGradient id="SVGID_6_" gradientUnits="userSpaceOnUse" x1="172.17" y1="293.9847" x2="354.74" y2="293.9847" gradientTransform="matrix(1 0 0 -1 0 514)">
	<stop  offset="0" style="stop-color:#FF0014"/>
	<stop  offset="1" style="stop-color:#B80002"/>
</linearGradient>
<path style="fill:url(#SVGID_6_);" d="M325.125,176.5h-138.25c0,0-1.875,31.833,22.125,41.333
	c22.884,9.058,33.191,17.359,34.1,33.86c0.093,1.694,0.531,3.354,1.322,4.855l0,0c4.91,9.31,18.244,9.31,23.154,0l0,0
	c0.791-1.501,1.229-3.161,1.322-4.855c0.909-16.501,11.216-24.802,34.1-33.86C327,208.333,325.125,176.5,325.125,176.5z"/>
<g>
</g>
<g>
</g>
<g>
</g>
<g>
</g>
<g>
</g>
<g>
</g>
<g>
</g>
<g>
</g>
<g>
</g>
<g>
</g>
<g>
</g>
<g>
</g>
<g>
</g>
<g>
</g>
<g>
</g>
</svg>
